<?xml version="1.0" encoding="UTF-8"?>
<svg id="Calque_1" xmlns="http://www.w3.org/2000/svg" version="1.1" viewBox="0 0 1047.3 409.46">
  <!-- Generator: Adobe Illustrator 30.1.0, SVG Export Plug-In . SVG Version: 2.1.1 Build 136)  -->
  <defs>
    <style>
      .st0 {
        fill: #80242a;
      }
    </style>
  </defs>
  <g>
    <path class="st0" d="M81.52,67.8h69.45v2.55h-54.34v54.68h34.64v2.72h-34.64v63.51h54.34v2.38h-69.45v-125.83Z"/>
    <path class="st0" d="M161.34,158.82c-.51-8.66,3.91-13.75,9.34-13.75,5.77,0,8.66,4.58,8.66,8.49,0,8.83-1.36,10.53-1.36,19.87,0,8.15,11.89,19.7,27.17,19.7,12.91,0,29.04-5.43,29.04-19.7,0-42.62-67.42-42.96-67.42-74.55,0-16.3,12.06-32.94,37.87-32.94,19.19,0,36.68,12.57,36.68,24.96,0,6.79-3.74,9.68-8.66,9.68s-8.83-3.57-8.83-11.55c0-11.04-5.09-20.72-19.7-20.72-16.3,0-27.68,10.7-27.68,20.72,0,26.15,68.77,34.47,68.77,68.95,0,29.89-25.98,37.53-40.08,37.53-24.11,0-42.79-17.66-43.81-36.68Z"/>
    <path class="st0" d="M262.55,67.8h34.47c22.25,0,37.02,12.06,37.02,29.72,0,19.19-17.83,30.06-37.02,30.06h-19.36v66.06h-15.11v-125.83ZM293.79,124.86c10.53,0,22.59-8.15,22.59-27.34,0-21.06-10.7-27.17-22.59-27.17h-16.13v54.51h16.13Z"/>
    <path class="st0" d="M347.46,67.8h34.47c22.25,0,37.02,12.06,37.02,29.72,0,14.6-10.19,24.96-25.81,28.53,18.51,3.4,29.89,15.96,29.89,33.28.17,12.91,0,22.25,2.89,27.34,1.36,2.38,3.06,3.91,5.77,3.91,2.89,0,5.77-1.19,8.15-3.4l1.19,2.21c-5.77,4.42-13.42,5.6-21.23,2.55-8.83-3.57-14.43-11.55-14.43-32.6,0-24.28-12.91-31.75-23.43-31.75h-19.36v66.06h-15.11v-125.83ZM378.71,124.86c10.53,0,22.59-8.15,22.59-27.34,0-21.06-10.7-27.17-22.59-27.17h-16.13v54.51h16.13Z"/>
    <path class="st0" d="M453.26,67.8h15.11v125.83h-15.11v-125.83Z"/>
    <path class="st0" d="M526.79,70.34h-46.02v-2.55h106.98v2.55h-45.85v123.46h-15.11v-123.46Z"/>
  </g>
  <g>
    <path class="st0" d="M186.13,223.18h-46.02v-2.55h106.98v2.55h-45.85v123.46h-15.11v-123.46Z"/>
    <path class="st0" d="M259.49,220.64h34.47c22.25,0,37.02,12.06,37.02,29.72,0,14.6-10.19,24.96-25.81,28.53,18.51,3.4,29.89,15.96,29.89,33.28.17,12.91,0,22.25,2.89,27.34,1.36,2.38,3.06,3.91,5.77,3.91,2.89,0,5.77-1.19,8.15-3.4l1.19,2.21c-5.77,4.42-13.42,5.6-21.23,2.55-8.83-3.57-14.43-11.55-14.43-32.6,0-24.28-12.91-31.75-23.43-31.75h-19.36v66.06h-15.11v-125.83ZM290.74,277.69c10.53,0,22.59-8.15,22.59-27.34,0-21.06-10.7-27.17-22.59-27.17h-16.13v54.51h16.13Z"/>
    <path class="st0" d="M365.29,220.64h69.45v2.55h-54.34v54.68h34.64v2.72h-34.64v63.51h54.34v2.38h-69.45v-125.83Z"/>
    <path class="st0" d="M449.69,220.64h15.11v125.83h-15.11v-125.83Z"/>
    <path class="st0" d="M484.67,220.64h15.11v123.46h54.34v2.38h-69.45v-125.83Z"/>
    <path class="st0" d="M566.35,220.64h15.11v60.96h58.76v-60.96h15.11v125.83h-15.11v-62.49h-58.76v62.49h-15.11v-125.83Z"/>
    <path class="st0" d="M709.85,235.41l6.79-18h2.72l48.91,129.06h-16.3l-19.7-51.62h-42.62l-19.7,51.62h-2.38l42.28-111.06ZM731.59,292.3l-20.55-53.49-20.38,53.49h40.93Z"/>
    <path class="st0" d="M780.67,220.64h34.47c22.25,0,37.02,12.06,37.02,29.72,0,14.6-10.19,24.96-25.81,28.53,18.51,3.4,29.89,15.96,29.89,33.28.17,12.91,0,22.25,2.89,27.34,1.36,2.38,3.06,3.91,5.77,3.91,2.89,0,5.77-1.19,8.15-3.4l1.19,2.21c-5.77,4.42-13.42,5.6-21.23,2.55-8.83-3.57-14.43-11.55-14.43-32.6,0-24.28-12.91-31.75-23.43-31.75h-19.36v66.06h-15.11v-125.83ZM811.92,277.69c10.53,0,22.58-8.15,22.58-27.34,0-21.06-10.7-27.17-22.58-27.17h-16.13v54.51h16.13Z"/>
    <path class="st0" d="M886.47,220.64h25.98c48.4,0,75.06,23.43,75.06,62.83s-26.66,63-75.06,63h-25.98v-125.83ZM912.45,344.09c37.53,0,57.4-22.08,57.4-61.81,0-44.32-23.26-59.1-57.4-59.1h-10.87v120.91h10.87Z"/>
  </g>
  <g>
    <path class="st0" d="M81.52,67.8h69.45v2.55h-54.34v54.68h34.64v2.72h-34.64v63.51h54.34v2.38h-69.45v-125.83Z"/>
    <path class="st0" d="M161.34,158.82c-.51-8.66,3.91-13.75,9.34-13.75,5.77,0,8.66,4.58,8.66,8.49,0,8.83-1.36,10.53-1.36,19.87,0,8.15,11.89,19.7,27.17,19.7,12.91,0,29.04-5.43,29.04-19.7,0-42.62-67.42-42.96-67.42-74.55,0-16.3,12.06-32.94,37.87-32.94,19.19,0,36.68,12.57,36.68,24.96,0,6.79-3.74,9.68-8.66,9.68s-8.83-3.57-8.83-11.55c0-11.04-5.09-20.72-19.7-20.72-16.3,0-27.68,10.7-27.68,20.72,0,26.15,68.77,34.47,68.77,68.95,0,29.89-25.98,37.53-40.08,37.53-24.11,0-42.79-17.66-43.81-36.68Z"/>
    <path class="st0" d="M262.55,67.8h34.47c22.25,0,37.02,12.06,37.02,29.72,0,19.19-17.83,30.06-37.02,30.06h-19.36v66.06h-15.11v-125.83ZM293.79,124.86c10.53,0,22.59-8.15,22.59-27.34,0-21.06-10.7-27.17-22.59-27.17h-16.13v54.51h16.13Z"/>
    <path class="st0" d="M347.46,67.8h34.47c22.25,0,37.02,12.06,37.02,29.72,0,14.6-10.19,24.96-25.81,28.53,18.51,3.4,29.89,15.96,29.89,33.28.17,12.91,0,22.25,2.89,27.34,1.36,2.38,3.06,3.91,5.77,3.91,2.89,0,5.77-1.19,8.15-3.4l1.19,2.21c-5.77,4.42-13.42,5.6-21.23,2.55-8.83-3.57-14.43-11.55-14.43-32.6,0-24.28-12.91-31.75-23.43-31.75h-19.36v66.06h-15.11v-125.83ZM378.71,124.86c10.53,0,22.59-8.15,22.59-27.34,0-21.06-10.7-27.17-22.59-27.17h-16.13v54.51h16.13Z"/>
    <path class="st0" d="M453.26,67.8h15.11v125.83h-15.11v-125.83Z"/>
    <path class="st0" d="M526.79,70.34h-46.02v-2.55h106.98v2.55h-45.85v123.46h-15.11v-123.46Z"/>
  </g>
  <g>
    <path class="st0" d="M186.13,223.18h-46.02v-2.55h106.98v2.55h-45.85v123.46h-15.11v-123.46Z"/>
    <path class="st0" d="M259.49,220.64h34.47c22.25,0,37.02,12.06,37.02,29.72,0,14.6-10.19,24.96-25.81,28.53,18.51,3.4,29.89,15.96,29.89,33.28.17,12.91,0,22.25,2.89,27.34,1.36,2.38,3.06,3.91,5.77,3.91,2.89,0,5.77-1.19,8.15-3.4l1.19,2.21c-5.77,4.42-13.42,5.6-21.23,2.55-8.83-3.57-14.43-11.55-14.43-32.6,0-24.28-12.91-31.75-23.43-31.75h-19.36v66.06h-15.11v-125.83ZM290.74,277.69c10.53,0,22.59-8.15,22.59-27.34,0-21.06-10.7-27.17-22.59-27.17h-16.13v54.51h16.13Z"/>
    <path class="st0" d="M365.29,220.64h69.45v2.55h-54.34v54.68h34.64v2.72h-34.64v63.51h54.34v2.38h-69.45v-125.83Z"/>
    <path class="st0" d="M449.69,220.64h15.11v125.83h-15.11v-125.83Z"/>
    <path class="st0" d="M484.67,220.64h15.11v123.46h54.34v2.38h-69.45v-125.83Z"/>
  </g>
</svg>